<svg width="31" height="30" viewBox="0 0 31 30" fill="none" xmlns="http://www.w3.org/2000/svg">
<path d="M15.5707 0.000228881L15.5222 0C9.16669 0 3.99609 5.00426 3.99609 11.1554C3.99609 14.5278 5.77726 17.1581 7.76182 19.7774L15.5068 29.9999C15.5068 29.9999 22.8273 20.3819 23.2852 19.7776C25.2698 17.1583 27.0509 14.528 27.0509 11.1557C27.0509 5.0196 21.9056 0.0244903 15.5707 0.000228881ZM21.8207 18.7383C21.3624 19.3435 16.5529 25.718 15.53 27.0584L9.22629 18.7383C7.35833 16.2728 5.81226 14.0004 5.81226 11.1554C5.81226 5.98799 10.1435 1.78115 15.477 1.75758H15.5236C20.8785 1.75758 25.235 5.97358 25.235 11.1557C25.235 14.0007 23.6887 16.2728 21.8207 18.7383Z" fill="white"/>
<path d="M15.5236 4.71582C11.8541 4.71582 8.86914 7.60477 8.86914 11.1556C8.86914 14.7067 11.8541 17.5957 15.5236 17.5957C19.1929 17.5957 22.1781 14.7067 22.1781 11.1556C22.1781 7.60477 19.1929 4.71582 15.5236 4.71582ZM15.5236 15.8381C12.8555 15.8381 10.6851 13.7377 10.6851 11.1556C10.6851 8.57385 12.8555 6.4734 15.5236 6.4734C18.1915 6.4734 20.3622 8.57385 20.3622 11.1556C20.3622 13.7377 18.1915 15.8381 15.5236 15.8381Z" fill="white"/>
</svg>
