<svg width="0" height="0" class="hidden">
  <symbol viewBox="0 0 30 30" fill="none" xmlns="http://www.w3.org/2000/svg" id="mobi">
    <path d="M29.98 24.691a2.301 2.301 0 0 0-1.142-1.705l-7.4-4.261a2.322 2.322 0 0 0-2.797.37l-1.458 1.457a1.068 1.068 0 0 1-1.427.08 42.167 42.167 0 0 1-3.363-3.025 42.178 42.178 0 0 1-3.025-3.363 1.068 1.068 0 0 1 .08-1.427l1.457-1.458c.74-.74.892-1.89.37-2.796l-4.26-7.401A2.302 2.302 0 0 0 5.308.02a2.301 2.301 0 0 0-1.944.66L1.17 2.875C-.363 4.408-.388 7.212 1.1 10.772c1.432 3.422 4.102 7.19 7.52 10.608 3.42 3.418 7.187 6.089 10.609 7.52 1.752.733 3.32 1.099 4.645 1.099 1.367 0 2.473-.39 3.252-1.169l2.196-2.196a2.302 2.302 0 0 0 .66-1.944zm-9.027-5.124l7.4 4.261c.367.211.608.572.664.99.046.352-.045.698-.252.977l-9.836-5.614.4-.399a1.35 1.35 0 0 1 1.623-.215zM5.18.984c.42.055.78.297.99.663l4.262 7.4a1.349 1.349 0 0 1-.215 1.625l-.367.367-5.644-9.804A1.33 1.33 0 0 1 5.18.984zm21.256 27.16c-1.218 1.218-3.709 1.167-6.834-.14-3.309-1.383-6.965-3.98-10.296-7.31-3.331-3.332-5.927-6.988-7.31-10.296C.688 7.272.637 4.78 1.855 3.563l1.63-1.63L9.14 11.75l-.38.379c-.74.74-.804 1.91-.15 2.724a43.118 43.118 0 0 0 3.096 3.44 43.16 43.16 0 0 0 3.44 3.096 2.04 2.04 0 0 0 2.725-.15l.345-.346 9.85 5.621-1.629 1.63z"
      fill = "#fff"></path>
  </symbol>
</svg>