<svg width="0" height="0" class="hidden">
  <symbol viewBox="0 0 31 30" fill="none" xmlns="http://www.w3.org/2000/svg" id="map">
    <path d="M15.57 0h-.048C9.167 0 3.996 5.004 3.996 11.155c0 3.373 1.781 6.003 3.766 8.622L15.507 30s7.32-9.618 7.778-10.222c1.985-2.62 3.766-5.25 3.766-8.622C27.05 5.02 21.906.024 15.57 0zm6.25 18.738c-.458.605-5.267 6.98-6.29 8.32l-6.304-8.32C7.358 16.273 5.812 14 5.812 11.155c0-5.167 4.331-9.374 9.665-9.397h.047c5.354 0 9.711 4.216 9.711 9.398 0 2.845-1.546 5.117-3.414 7.582z"
      fill="#fff"></path>
    <path d="M15.524 4.716c-3.67 0-6.655 2.889-6.655 6.44 0 3.55 2.985 6.44 6.655 6.44 3.669 0 6.654-2.89 6.654-6.44 0-3.551-2.985-6.44-6.654-6.44zm0 11.122c-2.668 0-4.839-2.1-4.839-4.682 0-2.582 2.17-4.683 4.839-4.683 2.668 0 4.838 2.1 4.838 4.683 0 2.582-2.17 4.682-4.838 4.682z"
      fill="#fff"></path>
  </symbol>
</svg>