<svg width="0" height="0" class="hidden">
  <symbol viewBox="0 0 30 30" fill="none" xmlns="http://www.w3.org/2000/svg" id="inst">
    <g clip-path="url(#clip0)" fill="#fff">
      <path d="M4.395 30h21.21A4.4 4.4 0 0 0 30 25.605V4.395A4.4 4.4 0 0 0 25.605 0H4.395A4.4 4.4 0 0 0 0 4.395v21.21A4.4 4.4 0 0 0 4.395 30zM1.758 4.395a2.64 2.64 0 0 1 2.637-2.637h21.21a2.64 2.64 0 0 1 2.637 2.637v21.21a2.64 2.64 0 0 1-2.637 2.637H4.395a2.64 2.64 0 0 1-2.637-2.637V4.395z"></path>
      <path d="M15 22.91c4.362 0 7.91-3.548 7.91-7.91S19.362 7.09 15 7.09 7.09 10.638 7.09 15s3.548 7.91 7.91 7.91zm0-14.062A6.16 6.16 0 0 1 21.152 15 6.16 6.16 0 0 1 15 21.152 6.16 6.16 0 0 1 8.848 15 6.16 6.16 0 0 1 15 8.848zm8.79 0a2.64 2.64 0 0 0 2.636-2.637 2.64 2.64 0 0 0-2.637-2.637 2.64 2.64 0 0 0-2.637 2.637 2.64 2.64 0 0 0 2.637 2.637zm0-3.516a.88.88 0 0 1 0 1.758.88.88 0 0 1 0-1.758z"></path>
    </g>
    <defs>
      <clipPath id="clip0">
        <path fill="#fff" d="M0 0h30v30H0z"></path>
      </clipPath>
    </defs>
  </symbol>
  <symbol viewBox="0 0 30 30" fill="none" xmlns="http://www.w3.org/2000/svg" id="fb">
    <path d="M4.395 30h9.785V19.336h-3.516V15.82h3.516v-4.394a4.4 4.4 0 0 1 4.394-4.395h4.395v3.516h-3.516a1.76 1.76 0 0 0-1.758 1.758v3.515h5.115l-.586 3.516h-4.529V30h7.91A4.4 4.4 0 0 0 30 25.605V4.395A4.4 4.4 0 0 0 25.605 0H4.395A4.4 4.4 0 0 0 0 4.395v21.21A4.4 4.4 0 0 0 4.395 30zM1.758 4.395a2.64 2.64 0 0 1 2.637-2.637h21.21a2.64 2.64 0 0 1 2.637 2.637v21.21a2.64 2.64 0 0 1-2.637 2.637h-6.152v-7.148h4.26l1.172-7.032h-5.432v-1.757h5.274V5.273h-6.153a6.16 6.16 0 0 0-6.152 6.153v2.636H8.906v7.032h3.516v7.148H4.395a2.64 2.64 0 0 1-2.637-2.637V4.395z"
      fill="#fff"></path>
  </symbol>
</svg>